<mxfile host="app.diagrams.net" modified="2023-11-07T09:51:11.580Z" agent="Mozilla/5.0 (Windows NT 10.0; Win64; x64; rv:109.0) Gecko/20100101 Firefox/119.0" version="22.0.8" etag="sh47vGWq7GPuiKNnDDqJ" type="github">
  <diagram name="Sayfa -1" id="W0z5N2rczcPpevzTEap4">
    <mxGraphModel>
      <root>
        <mxCell id="0" />
        <mxCell id="1" parent="0" />
      </root>
    </mxGraphModel>
  </diagram>
</mxfile>
